<?xml version="1.0" standalone="no"?>
<!DOCTYPE svg PUBLIC "-//W3C//DTD SVG 20010904//EN"
 "http://www.w3.org/TR/2001/REC-SVG-20010904/DTD/svg10.dtd">
<svg version="1.0" xmlns="http://www.w3.org/2000/svg"
 width="345.000000pt" height="103.000000pt" viewBox="0 0 345.000000 103.000000"
 preserveAspectRatio="xMidYMid meet">

<g transform="translate(0.000000,103.000000) scale(0.100000,-0.100000)"
fill="#000000" stroke="none">
<path d="M140 1019 c-52 -16 -100 -56 -121 -103 -17 -37 -19 -70 -19 -344 0
-324 3 -346 53 -401 30 -32 94 -61 138 -61 80 0 127 30 282 181 l88 86 -3 56
-3 55 -153 -139 c-84 -76 -163 -141 -177 -145 -33 -8 -66 1 -98 27 l-27 20 0
313 c0 264 2 315 15 333 20 28 84 47 117 34 12 -5 91 -70 173 -145 l150 -136
3 57 c3 57 2 59 -36 93 -22 19 -79 71 -127 115 -47 44 -97 86 -110 93 -35 18
-104 23 -145 11z"/>
</g>
</svg>
